<mxfile host="app.diagrams.net" agent="Mozilla/5.0 (Windows NT 10.0; Win64; x64) AppleWebKit/537.36 (KHTML, like Gecko) Chrome/129.0.0.0 Safari/537.36 Edg/129.0.0.0" version="24.7.17">
  <diagram name="Trang-1" id="q_FlPD0klkUqq_Bt0kbS">
    <mxGraphModel dx="1572" dy="1004" grid="1" gridSize="10" guides="1" tooltips="1" connect="1" arrows="1" fold="1" page="1" pageScale="1" pageWidth="1169" pageHeight="1654" math="0" shadow="0">
      <root>
        <mxCell id="0" />
        <mxCell id="1" parent="0" />
        <mxCell id="dwDEQqfO3nAO9bm5AX3g-12" style="edgeStyle=orthogonalEdgeStyle;rounded=0;orthogonalLoop=1;jettySize=auto;html=1;exitX=0.5;exitY=1;exitDx=0;exitDy=0;entryX=0.5;entryY=0;entryDx=0;entryDy=0;" edge="1" parent="1" source="dwDEQqfO3nAO9bm5AX3g-1" target="dwDEQqfO3nAO9bm5AX3g-2">
          <mxGeometry relative="1" as="geometry" />
        </mxCell>
        <mxCell id="dwDEQqfO3nAO9bm5AX3g-13" style="edgeStyle=orthogonalEdgeStyle;rounded=0;orthogonalLoop=1;jettySize=auto;html=1;exitX=0.5;exitY=1;exitDx=0;exitDy=0;entryX=0.5;entryY=0;entryDx=0;entryDy=0;" edge="1" parent="1" source="dwDEQqfO3nAO9bm5AX3g-1" target="dwDEQqfO3nAO9bm5AX3g-3">
          <mxGeometry relative="1" as="geometry" />
        </mxCell>
        <mxCell id="dwDEQqfO3nAO9bm5AX3g-14" style="edgeStyle=orthogonalEdgeStyle;rounded=0;orthogonalLoop=1;jettySize=auto;html=1;exitX=0.5;exitY=1;exitDx=0;exitDy=0;entryX=0.5;entryY=0;entryDx=0;entryDy=0;" edge="1" parent="1" source="dwDEQqfO3nAO9bm5AX3g-1" target="dwDEQqfO3nAO9bm5AX3g-5">
          <mxGeometry relative="1" as="geometry" />
        </mxCell>
        <mxCell id="dwDEQqfO3nAO9bm5AX3g-15" style="edgeStyle=orthogonalEdgeStyle;rounded=0;orthogonalLoop=1;jettySize=auto;html=1;exitX=0.5;exitY=1;exitDx=0;exitDy=0;entryX=0.5;entryY=0;entryDx=0;entryDy=0;" edge="1" parent="1" source="dwDEQqfO3nAO9bm5AX3g-1" target="dwDEQqfO3nAO9bm5AX3g-7">
          <mxGeometry relative="1" as="geometry" />
        </mxCell>
        <mxCell id="dwDEQqfO3nAO9bm5AX3g-16" style="edgeStyle=orthogonalEdgeStyle;rounded=0;orthogonalLoop=1;jettySize=auto;html=1;exitX=0.5;exitY=1;exitDx=0;exitDy=0;entryX=0.5;entryY=0;entryDx=0;entryDy=0;" edge="1" parent="1" source="dwDEQqfO3nAO9bm5AX3g-1" target="dwDEQqfO3nAO9bm5AX3g-8">
          <mxGeometry relative="1" as="geometry" />
        </mxCell>
        <mxCell id="dwDEQqfO3nAO9bm5AX3g-1" value="Web truyện" style="rounded=0;whiteSpace=wrap;html=1;" vertex="1" parent="1">
          <mxGeometry x="525" y="20" width="120" height="60" as="geometry" />
        </mxCell>
        <mxCell id="dwDEQqfO3nAO9bm5AX3g-44" style="edgeStyle=orthogonalEdgeStyle;rounded=0;orthogonalLoop=1;jettySize=auto;html=1;exitX=1;exitY=0.5;exitDx=0;exitDy=0;entryX=0;entryY=0.5;entryDx=0;entryDy=0;" edge="1" parent="1" source="dwDEQqfO3nAO9bm5AX3g-2" target="dwDEQqfO3nAO9bm5AX3g-3">
          <mxGeometry relative="1" as="geometry" />
        </mxCell>
        <mxCell id="dwDEQqfO3nAO9bm5AX3g-2" value="Đăng ký" style="rounded=0;whiteSpace=wrap;html=1;" vertex="1" parent="1">
          <mxGeometry x="40" y="130" width="120" height="60" as="geometry" />
        </mxCell>
        <mxCell id="dwDEQqfO3nAO9bm5AX3g-20" style="edgeStyle=orthogonalEdgeStyle;rounded=0;orthogonalLoop=1;jettySize=auto;html=1;exitX=0.5;exitY=1;exitDx=0;exitDy=0;entryX=0;entryY=0.5;entryDx=0;entryDy=0;" edge="1" parent="1" source="dwDEQqfO3nAO9bm5AX3g-3" target="dwDEQqfO3nAO9bm5AX3g-4">
          <mxGeometry relative="1" as="geometry" />
        </mxCell>
        <mxCell id="dwDEQqfO3nAO9bm5AX3g-3" value="Đăng nhập" style="rounded=0;whiteSpace=wrap;html=1;" vertex="1" parent="1">
          <mxGeometry x="190" y="130" width="120" height="60" as="geometry" />
        </mxCell>
        <mxCell id="dwDEQqfO3nAO9bm5AX3g-4" value="Quên mật khẩu" style="rounded=0;whiteSpace=wrap;html=1;" vertex="1" parent="1">
          <mxGeometry x="270" y="230" width="120" height="60" as="geometry" />
        </mxCell>
        <mxCell id="dwDEQqfO3nAO9bm5AX3g-18" style="edgeStyle=orthogonalEdgeStyle;rounded=0;orthogonalLoop=1;jettySize=auto;html=1;exitX=0.5;exitY=1;exitDx=0;exitDy=0;entryX=0;entryY=0.5;entryDx=0;entryDy=0;" edge="1" parent="1" source="dwDEQqfO3nAO9bm5AX3g-5" target="dwDEQqfO3nAO9bm5AX3g-9">
          <mxGeometry relative="1" as="geometry" />
        </mxCell>
        <mxCell id="dwDEQqfO3nAO9bm5AX3g-19" style="edgeStyle=orthogonalEdgeStyle;rounded=0;orthogonalLoop=1;jettySize=auto;html=1;exitX=0.5;exitY=1;exitDx=0;exitDy=0;entryX=0;entryY=0.5;entryDx=0;entryDy=0;" edge="1" parent="1" source="dwDEQqfO3nAO9bm5AX3g-5" target="dwDEQqfO3nAO9bm5AX3g-6">
          <mxGeometry relative="1" as="geometry" />
        </mxCell>
        <mxCell id="dwDEQqfO3nAO9bm5AX3g-36" style="edgeStyle=orthogonalEdgeStyle;rounded=0;orthogonalLoop=1;jettySize=auto;html=1;exitX=0.5;exitY=1;exitDx=0;exitDy=0;entryX=0;entryY=0.5;entryDx=0;entryDy=0;" edge="1" parent="1" source="dwDEQqfO3nAO9bm5AX3g-5" target="dwDEQqfO3nAO9bm5AX3g-32">
          <mxGeometry relative="1" as="geometry" />
        </mxCell>
        <mxCell id="dwDEQqfO3nAO9bm5AX3g-43" style="edgeStyle=orthogonalEdgeStyle;rounded=0;orthogonalLoop=1;jettySize=auto;html=1;exitX=0.5;exitY=1;exitDx=0;exitDy=0;entryX=0;entryY=0.5;entryDx=0;entryDy=0;" edge="1" parent="1" source="dwDEQqfO3nAO9bm5AX3g-5" target="dwDEQqfO3nAO9bm5AX3g-35">
          <mxGeometry relative="1" as="geometry" />
        </mxCell>
        <mxCell id="dwDEQqfO3nAO9bm5AX3g-5" value="Trang chủ&amp;nbsp;" style="rounded=0;whiteSpace=wrap;html=1;" vertex="1" parent="1">
          <mxGeometry x="420" y="130" width="120" height="60" as="geometry" />
        </mxCell>
        <mxCell id="dwDEQqfO3nAO9bm5AX3g-6" value="Danh mục truyện" style="rounded=0;whiteSpace=wrap;html=1;" vertex="1" parent="1">
          <mxGeometry x="505" y="320" width="120" height="60" as="geometry" />
        </mxCell>
        <mxCell id="dwDEQqfO3nAO9bm5AX3g-17" style="edgeStyle=orthogonalEdgeStyle;rounded=0;orthogonalLoop=1;jettySize=auto;html=1;exitX=0.5;exitY=1;exitDx=0;exitDy=0;entryX=0;entryY=0.5;entryDx=0;entryDy=0;" edge="1" parent="1" source="dwDEQqfO3nAO9bm5AX3g-7" target="dwDEQqfO3nAO9bm5AX3g-11">
          <mxGeometry relative="1" as="geometry" />
        </mxCell>
        <mxCell id="dwDEQqfO3nAO9bm5AX3g-7" value="Tìm kiếm" style="rounded=0;whiteSpace=wrap;html=1;" vertex="1" parent="1">
          <mxGeometry x="660" y="130" width="120" height="60" as="geometry" />
        </mxCell>
        <mxCell id="dwDEQqfO3nAO9bm5AX3g-23" style="edgeStyle=orthogonalEdgeStyle;rounded=0;orthogonalLoop=1;jettySize=auto;html=1;exitX=0.5;exitY=1;exitDx=0;exitDy=0;entryX=0;entryY=0.5;entryDx=0;entryDy=0;" edge="1" parent="1" source="dwDEQqfO3nAO9bm5AX3g-8" target="dwDEQqfO3nAO9bm5AX3g-21">
          <mxGeometry relative="1" as="geometry" />
        </mxCell>
        <mxCell id="dwDEQqfO3nAO9bm5AX3g-29" style="edgeStyle=orthogonalEdgeStyle;rounded=0;orthogonalLoop=1;jettySize=auto;html=1;exitX=0.5;exitY=1;exitDx=0;exitDy=0;entryX=0;entryY=0.5;entryDx=0;entryDy=0;" edge="1" parent="1" source="dwDEQqfO3nAO9bm5AX3g-8" target="dwDEQqfO3nAO9bm5AX3g-27">
          <mxGeometry relative="1" as="geometry" />
        </mxCell>
        <mxCell id="dwDEQqfO3nAO9bm5AX3g-31" style="edgeStyle=orthogonalEdgeStyle;rounded=0;orthogonalLoop=1;jettySize=auto;html=1;exitX=0.5;exitY=1;exitDx=0;exitDy=0;entryX=0;entryY=0.5;entryDx=0;entryDy=0;" edge="1" parent="1" source="dwDEQqfO3nAO9bm5AX3g-8" target="dwDEQqfO3nAO9bm5AX3g-30">
          <mxGeometry relative="1" as="geometry" />
        </mxCell>
        <mxCell id="dwDEQqfO3nAO9bm5AX3g-8" value="Tài khoản" style="rounded=0;whiteSpace=wrap;html=1;" vertex="1" parent="1">
          <mxGeometry x="900" y="130" width="120" height="60" as="geometry" />
        </mxCell>
        <mxCell id="dwDEQqfO3nAO9bm5AX3g-9" value="Bảng xếp hạng&amp;nbsp;" style="rounded=0;whiteSpace=wrap;html=1;" vertex="1" parent="1">
          <mxGeometry x="505" y="230" width="120" height="60" as="geometry" />
        </mxCell>
        <mxCell id="dwDEQqfO3nAO9bm5AX3g-11" value="Bộ lọc" style="rounded=0;whiteSpace=wrap;html=1;" vertex="1" parent="1">
          <mxGeometry x="740" y="230" width="120" height="60" as="geometry" />
        </mxCell>
        <mxCell id="dwDEQqfO3nAO9bm5AX3g-26" style="edgeStyle=orthogonalEdgeStyle;rounded=0;orthogonalLoop=1;jettySize=auto;html=1;exitX=0.5;exitY=1;exitDx=0;exitDy=0;entryX=0;entryY=0.5;entryDx=0;entryDy=0;" edge="1" parent="1" source="dwDEQqfO3nAO9bm5AX3g-21" target="dwDEQqfO3nAO9bm5AX3g-25">
          <mxGeometry relative="1" as="geometry" />
        </mxCell>
        <mxCell id="dwDEQqfO3nAO9bm5AX3g-21" value="Thông tin" style="rounded=0;whiteSpace=wrap;html=1;" vertex="1" parent="1">
          <mxGeometry x="990" y="410" width="120" height="60" as="geometry" />
        </mxCell>
        <mxCell id="dwDEQqfO3nAO9bm5AX3g-22" value="Đổi mật khẩu" style="rounded=0;whiteSpace=wrap;html=1;" vertex="1" parent="1">
          <mxGeometry x="1169" y="590" width="120" height="60" as="geometry" />
        </mxCell>
        <mxCell id="dwDEQqfO3nAO9bm5AX3g-28" style="edgeStyle=orthogonalEdgeStyle;rounded=0;orthogonalLoop=1;jettySize=auto;html=1;exitX=0.5;exitY=1;exitDx=0;exitDy=0;entryX=0;entryY=0.5;entryDx=0;entryDy=0;" edge="1" parent="1" source="dwDEQqfO3nAO9bm5AX3g-25" target="dwDEQqfO3nAO9bm5AX3g-22">
          <mxGeometry relative="1" as="geometry" />
        </mxCell>
        <mxCell id="dwDEQqfO3nAO9bm5AX3g-25" value="Sửa thông tin" style="rounded=0;whiteSpace=wrap;html=1;" vertex="1" parent="1">
          <mxGeometry x="1080" y="500" width="120" height="60" as="geometry" />
        </mxCell>
        <mxCell id="dwDEQqfO3nAO9bm5AX3g-27" value="Lịch sử đọc truyện" style="rounded=0;whiteSpace=wrap;html=1;" vertex="1" parent="1">
          <mxGeometry x="990" y="230" width="120" height="60" as="geometry" />
        </mxCell>
        <mxCell id="dwDEQqfO3nAO9bm5AX3g-30" value="Danh sách truyện được đánh dấu" style="rounded=0;whiteSpace=wrap;html=1;" vertex="1" parent="1">
          <mxGeometry x="990" y="320" width="120" height="60" as="geometry" />
        </mxCell>
        <mxCell id="dwDEQqfO3nAO9bm5AX3g-34" style="edgeStyle=orthogonalEdgeStyle;rounded=0;orthogonalLoop=1;jettySize=auto;html=1;exitX=0.5;exitY=1;exitDx=0;exitDy=0;entryX=0;entryY=0.5;entryDx=0;entryDy=0;" edge="1" parent="1" source="dwDEQqfO3nAO9bm5AX3g-32" target="dwDEQqfO3nAO9bm5AX3g-33">
          <mxGeometry relative="1" as="geometry" />
        </mxCell>
        <mxCell id="dwDEQqfO3nAO9bm5AX3g-41" style="edgeStyle=orthogonalEdgeStyle;rounded=0;orthogonalLoop=1;jettySize=auto;html=1;exitX=0.5;exitY=1;exitDx=0;exitDy=0;entryX=0;entryY=0.5;entryDx=0;entryDy=0;" edge="1" parent="1" source="dwDEQqfO3nAO9bm5AX3g-32" target="dwDEQqfO3nAO9bm5AX3g-40">
          <mxGeometry relative="1" as="geometry" />
        </mxCell>
        <mxCell id="dwDEQqfO3nAO9bm5AX3g-42" style="edgeStyle=orthogonalEdgeStyle;rounded=0;orthogonalLoop=1;jettySize=auto;html=1;exitX=0.5;exitY=1;exitDx=0;exitDy=0;entryX=0;entryY=0.5;entryDx=0;entryDy=0;" edge="1" parent="1" source="dwDEQqfO3nAO9bm5AX3g-32" target="dwDEQqfO3nAO9bm5AX3g-39">
          <mxGeometry relative="1" as="geometry" />
        </mxCell>
        <mxCell id="dwDEQqfO3nAO9bm5AX3g-32" value="Đọc truyện" style="rounded=0;whiteSpace=wrap;html=1;" vertex="1" parent="1">
          <mxGeometry x="505" y="410" width="120" height="60" as="geometry" />
        </mxCell>
        <mxCell id="dwDEQqfO3nAO9bm5AX3g-33" value="Bình luận" style="rounded=0;whiteSpace=wrap;html=1;" vertex="1" parent="1">
          <mxGeometry x="590" y="500" width="120" height="60" as="geometry" />
        </mxCell>
        <mxCell id="dwDEQqfO3nAO9bm5AX3g-35" value="Thông báo" style="rounded=0;whiteSpace=wrap;html=1;" vertex="1" parent="1">
          <mxGeometry x="505" y="767" width="120" height="60" as="geometry" />
        </mxCell>
        <mxCell id="dwDEQqfO3nAO9bm5AX3g-39" value="Đánh dấu truyện" style="rounded=0;whiteSpace=wrap;html=1;" vertex="1" parent="1">
          <mxGeometry x="590" y="680" width="120" height="60" as="geometry" />
        </mxCell>
        <mxCell id="dwDEQqfO3nAO9bm5AX3g-40" value="Đánh giá truyện (thích/không thích)" style="rounded=0;whiteSpace=wrap;html=1;" vertex="1" parent="1">
          <mxGeometry x="590" y="590" width="120" height="60" as="geometry" />
        </mxCell>
      </root>
    </mxGraphModel>
  </diagram>
</mxfile>
